<?xml version="1.0" standalone="no"?><!DOCTYPE svg PUBLIC "-//W3C//DTD SVG 1.1//EN" "http://www.w3.org/Graphics/SVG/1.1/DTD/svg11.dtd"><svg t="1776852009989" class="icon" viewBox="0 0 1024 1024" version="1.1" xmlns="http://www.w3.org/2000/svg" p-id="4894" xmlns:xlink="http://www.w3.org/1999/xlink" width="200" height="200"><path d="M768 213.333333h-42.666667V170.666667c0-25.6-17.066667-42.666667-42.666666-42.666667s-42.666667 17.066667-42.666667 42.666667v42.666666H384V170.666667c0-25.6-17.066667-42.666667-42.666667-42.666667s-42.666667 17.066667-42.666666 42.666667v42.666666H256C183.466667 213.333333 128 268.8 128 341.333333v426.666667c0 72.533333 55.466667 128 128 128h512c72.533333 0 128-55.466667 128-128V341.333333c0-72.533333-55.466667-128-128-128z m42.666667 554.666667c0 25.6-17.066667 42.666667-42.666667 42.666667H256c-25.6 0-42.666667-17.066667-42.666667-42.666667v-256h597.333334v256zM213.333333 426.666667V341.333333c0-25.6 17.066667-42.666667 42.666667-42.666666h42.666667v42.666666c0 25.6 17.066667 42.666667 42.666666 42.666667s42.666667-17.066667 42.666667-42.666667V298.666667h256v42.666666c0 25.6 17.066667 42.666667 42.666667 42.666667s42.666667-17.066667 42.666666-42.666667V298.666667h42.666667c25.6 0 42.666667 17.066667 42.666667 42.666666v85.333334H213.333333z" fill="#515151" p-id="4895"></path><path d="M341.333333 682.666667h341.333334c25.6 0 42.666667-17.066667 42.666666-42.666667s-17.066667-42.666667-42.666666-42.666667H341.333333c-25.6 0-42.666667 17.066667-42.666666 42.666667s17.066667 42.666667 42.666666 42.666667z" fill="#515151" p-id="4896"></path></svg>