<svg t="1750855186654" class="icon" viewBox="0 0 1024 1024" version="1.1" xmlns="http://www.w3.org/2000/svg" p-id="11582" width="20" height="20"><path d="M450.275556 14.563556a499.712 499.712 0 1 0 559.217777 559.217777 42.666667 42.666667 0 0 0-64.910222-41.585777 328.647111 328.647111 0 0 1-452.721778-452.721778 42.666667 42.666667 0 0 0-41.528889-64.910222z m-70.769778 103.537777l-3.982222 12.231111a413.980444 413.980444 0 0 0 395.377777 536.803556l18.033778-0.398222a413.240889 413.240889 0 0 0 104.846222-18.204445l12.117334-4.039111-3.697778 10.467556a414.72 414.72 0 0 1-388.323556 269.539555A414.321778 414.321778 0 0 1 99.555556 510.179556a414.72 414.72 0 0 1 269.539555-388.323556l10.410667-3.754667z" p-id="11583"></path></svg>