<svg t="1750848946852" class="icon" viewBox="0 0 1024 1024" version="1.1" xmlns="http://www.w3.org/2000/svg" p-id="9137" width="20" height="20"><path d="M629.76 483.7376c30.72 17.5104 61.5424 34.9184 92.2624 52.5312 5.2224 3.0208 5.9392 8.0384 6.0416 13.2096v147.968c0 20.2752 0.3072 40.5504 0 60.8256-1.024 63.488-27.904 112.7936-83.4048 145.8176-8.8576 5.3248-18.5856 8.704-28.5184 11.7248l-19.8656 5.7856h-60.7744c-29.696-7.68-57.4464-19.2512-79.872-40.7552a176.0768 176.0768 0 0 1-28.672-33.9968c-4.864-7.7824-3.584-12.6464 4.4544-17.152 38.5024-21.7088 76.8-43.7248 115.2512-65.536 22.016-12.5952 44.032-25.1904 66.2528-37.4272 5.5296-3.072 6.5536-7.3728 6.5536-12.8-0.1024-59.5968-0.3072-119.1424 0-178.688 0.0512-15.7184-0.8704-31.488 1.3312-47.2576 1.024-7.0144 3.7888-7.168 8.96-4.2496z m-32.9728 117.2992c0.1024 16.7424 0 33.4848 0 50.176 0 16.4352-0.1536 32.8704 0.1536 49.2544 0.1024 6.5024-2.048 10.8544-7.8848 14.1824-65.3312 36.9664-129.792 75.52-196.0448 110.7456-52.3264 27.8016-106.0864 24.9856-157.696-4.5568-40.96-23.4496-65.0752-59.0336-75.4176-104.3456-8.8064-38.5024-1.024-74.2912 16.7936-108.7488 4.352-8.3968 9.0624-10.0864 17.664-5.12 48.9984 28.2112 98.304 56.0128 147.456 83.9168 10.7008 6.0928 21.504 12.032 32.1536 18.2784 6.656 3.9424 12.544 1.6384 18.3808-1.6896l94.9248-53.9648c32.4608-18.432 65.024-36.9664 97.536-55.296 9.216-5.1712 11.8784-3.4816 11.9808 7.168zM655.36 349.2352c62.6688 36.4032 126.464 70.9632 188.672 108.032 44.288 26.4704 69.888 66.4576 76.1856 117.76 0.3072 2.1504 0.9216 4.352 1.3824 6.5024v15.4624c-2.304 11.9808-1.8944 24.2688-5.376 36.1472-13.056 44.0832-39.168 77.6192-80.128 100.2496-22.8352 12.6464-47.3088 17.408-72.8576 18.5856-11.9808 0.5632-12.6976-0.512-12.6976-12.4416 0-66.048-0.3072-131.9936 0.256-197.9904 0.1024-11.264-3.8912-17.4592-13.3632-22.8864-63.3856-35.84-126.5152-72.192-189.696-108.3392-10.496-6.0416-10.3936-7.68 0-13.6704 26.9824-15.5136 54.1696-30.8224 80.9472-46.6944 9.1648-5.376 16.4864-6.6048 26.624-0.7168zM261.2224 274.1248c12.8 0.3584 14.0288 1.2288 14.0288 13.9264 0 61.7472 0.6144 123.5456-0.6144 185.344-0.3584 18.944 4.9152 29.952 22.4768 39.4752 59.648 32.4096 118.1696 66.8672 177.152 100.5568 1.3824 0.8192 2.7648 1.6384 4.1472 2.56 8.3968 5.4784 8.6016 7.4752 0 12.4416-29.7984 17.2032-59.8528 34.048-89.6 51.3024-5.8368 3.3792-10.5472 1.7408-15.5648-1.0752l-119.4496-67.9424c-25.7024-14.6432-52.0192-28.416-76.8-44.4416-40.7552-26.2656-66.2528-62.9248-71.4752-111.7696-0.4096-4.096-2.048-8.0384-3.1232-12.032v-13.568c3.2768-15.0016 3.584-30.5152 8.6016-45.2608 17.3568-50.8928 52.6848-83.8656 103.2704-101.6832 15.1552-5.2736 30.72-8.2944 46.9504-7.8336zM478.72 102.4c30.976 5.7856 59.4432 16.9472 83.5584 37.376 13.6704 11.5712 25.9584 24.4224 35.0208 39.936 3.9424 6.8608 4.0448 12.288-4.096 16.6912-22.528 12.288-44.7488 25.088-67.072 37.7344-38.1952 21.6064-76.288 43.4176-114.5344 64.8192-6.4 3.584-6.7072 8.704-6.7072 14.6432 0 70.1952 0.1024 140.3904-0.1024 210.5856 0 6.5536 3.2256 15.5648-2.56 19.0464-6.2464 3.7376-12.0832-4.2496-17.8176-7.424-26.7264-14.7456-53.0944-30.0544-79.7696-44.9024-5.7856-3.2256-6.656-8.0384-6.656-13.824l-0.0512-84.992c0-45.7216-1.1776-91.4944 0.3072-137.216 1.6896-53.6576 26.1632-96.5632 71.3216-126.3616 21.3504-14.1312 46.08-22.4768 71.936-26.112h37.2224z m259.328 82.8416c50.2784 10.1376 87.2448 38.1952 110.8992 82.3296 27.392 51.0464 24.9344 102.4-2.7136 152.9856-3.6352 6.656-7.168 7.4752-13.824 3.6864-49.8688-28.0576-99.8912-55.7568-149.0432-84.9408-11.4688-6.8096-23.2448-12.9536-34.816-19.6096-3.7888-2.1504-6.9632-2.0992-10.8544 0.1024l-115.5072 65.024c-28.5184 16.0768-56.9856 32.256-85.3504 48.64-6.4512 3.6864-9.0624 1.792-9.0624-5.0176V376.32c-0.1536-16.0768 0.1024-32.2048-0.2048-48.2816-0.2048-8.2944 2.9184-13.7216 10.3936-17.92 65.8944-37.1712 131.4816-74.9568 197.632-111.7696 17.3568-9.6256 37.0176-13.568 56.9856-15.5648 15.36-1.536 30.3616-0.5632 45.4656 2.4576z" p-id="9138"></path></svg>