<svg xmlns="http://www.w3.org/2000/svg" viewBox="0 0 1024 1024">
  <path d="M766.2 791.4v-.1H321.6c-16.1 0-29.2-13.1-29.2-29.2s13.1-29.2 29.2-29.2h429.9v-.1c28.2-1.5 50.6-24.8 50.6-53.4l-.2-480.5c0-25-20.4-45.4-45.4-45.4H539.6c.4 2 .6 4 .6 6v258.8c-.7 12.1-14.8 18.6-24.8 11.7l-55.6-38.1c-5.4-3.7-12.5-3.7-17.9 0L386.3 430c-10 6.9-24.1.4-24.8-11.7V159.5c0-2.1.2-4.1.6-6H260.4c-25 0-45.4 20.4-45.4 45.4v622.6c0 25 20.4 45.4 45.4 45.4h496.1c1.2 0 2.5-.1 3.7-.2 1.1.1 2.2.2 3.3.2 20.9 0 37.8-16.9 37.8-37.8 0-20-15.4-36.3-35.1-37.7Z" />
</svg>
