<svg xmlns="http://www.w3.org/2000/svg" viewBox="0 0 1024 1024">
  <path d="M768 213.333H725.333V170.667c0-25.6-17.067-42.667-42.666-42.667s-42.667 17.067-42.667 42.667v42.666H384V170.667C384 145.067 366.933 128 341.333 128s-42.666 17.067-42.666 42.667v42.666H256C183.467 213.333 128 268.8 128 341.333V768c0 72.533 55.467 128 128 128h512c72.533 0 128-55.467 128-128V341.333c0-72.533-55.467-128-128-128Zm42.667 554.667c0 25.6-17.067 42.667-42.667 42.667H256c-25.6 0-42.667-17.067-42.667-42.667V512h597.334v256ZM213.333 426.667V341.333c0-25.6 17.067-42.666 42.667-42.666h42.667v42.666c0 25.6 17.066 42.667 42.666 42.667S384 366.933 384 341.333V298.667h256v42.666c0 25.6 17.067 42.667 42.667 42.667s42.666-17.067 42.666-42.667V298.667H768c25.6 0 42.667 17.066 42.667 42.666v85.334H213.333Z" />
  <path d="M341.333 682.667h341.334c25.6 0 42.666-17.067 42.666-42.667s-17.066-42.667-42.666-42.667H341.333c-25.6 0-42.666 17.067-42.666 42.667s17.066 42.667 42.666 42.667Z" />
</svg>
