<svg xmlns="http://www.w3.org/2000/svg" viewBox="0 0 1024 1024">
  <path d="M920.529 444.496 580.418 104.381a135.932 135.932 0 0 0-96.156-39.759L200.418 64.663H200.4c-75.124 0-136.099 60.746-136.099 135.885v283.674c0 36.113 14.352 70.754 39.881 96.199l340.231 340.241a136.023 136.023 0 0 0 192.37 0l283.746-283.761c53.128-53.132 53.128-139.278 0-192.405Zm-45.21 147.192-283.746 283.761a72.065 72.065 0 0 1-101.925 0L149.436 535.208a72.187 72.187 0 0 1-21.194-50.99V200.548A72.021 72.021 0 0 1 200.396 128.603l283.844-0.04a71.888 71.888 0 0 1 50.935 21.053l340.115 340.104a72.104 72.104 0 0 1 0.029 101.968Z" />
  <path d="M384.002 255.999c-70.695 0-128.003 57.308-128.003 128.003s57.308 127.996 128.003 127.996 128-57.308 128-128-57.311-127.999-128-127.999Zm45.296 173.296a64.059 64.059 0 1 1 18.76-45.293 63.64 63.64 0 0 1-18.76 45.293Z" />
</svg>
