<svg t="1750566883883" class="icon" viewBox="0 0 1024 1024" version="1.1" xmlns="http://www.w3.org/2000/svg" p-id="5608" width="20" height="20"><path d="M799.524571 560.761905v37.059047H902.095238v178.712381h-102.570667v79.238096H736.792381v-79.238096H633.904762v-178.712381h102.887619V560.761905h62.73219zM828.952381 146.285714a73.142857 73.142857 0 0 1 73.142857 73.142857v341.333334h-48.761905v-48.761905h-170.666666v48.761905h-97.52381v170.617905l-105.715809 0.02438-163.742477 118.613334a24.380952 24.380952 0 0 1-38.692571-19.748572V731.428571L195.047619 731.428571a73.142857 73.142857 0 0 1-73.142857-73.142857V219.428571a73.142857 73.142857 0 0 1 73.142857-73.142857h633.904762z m-93.184 494.933334h-42.812952v80.457142h42.812952v-80.457142z m107.105524 0H800.426667v80.457142h42.471619v-80.457142zM545.401905 292.571429h-91.428572L390.095238 530.895238h65.048381l11.093333-46.470095h66.852572l11.093333 46.470095H609.52381L545.377524 292.571429z m-45.275429 51.858285l21.601524 92.038096H477.622857l21.894095-92.038096h0.585143z" p-id="5609" fill="#1296db"></path></svg>