<svg t="1750486801701" class="icon" viewBox="0 0 1024 1024" version="1.1" xmlns="http://www.w3.org/2000/svg" p-id="6162" width="16" height="16"><path d="M279.272727 907.636364a232.727273 66.490182 0 1 0 465.454546 0 232.727273 66.490182 0 1 0-465.454546 0Z" fill="#202D2A" opacity=".3" p-id="6163"></path><path d="M512 93.090909c128.535273 0 232.727273 104.192 232.727273 232.727273 0 120.669091-91.834182 219.880727-209.431273 231.563636L535.272727 907.636364a23.272727 23.272727 0 0 1-46.545454 0V557.381818c-117.597091-11.659636-209.454545-110.894545-209.454546-231.563636 0-128.535273 104.192-232.727273 232.727273-232.727273z" fill="#F7383A" p-id="6164"></path><path d="M512 325.818182m-69.818182 0a69.818182 69.818182 0 1 0 139.636364 0 69.818182 69.818182 0 1 0-139.636364 0Z" fill="#FFFFFF" p-id="6165"></path></svg>