<svg t="1750486678766" class="icon" viewBox="0 0 1024 1024" version="1.1" xmlns="http://www.w3.org/2000/svg" p-id="3201" width="16" height="16"><path d="M512 0C230.4 0 0 230.4 0 512s230.4 512 512 512 512-230.4 512-512-230.4-512-512-512z m0 851.2c-185.6 0-339.2-153.6-339.2-339.2S326.4 172.8 512 172.8s339.2 153.6 339.2 339.2-153.6 339.2-339.2 339.2z" fill="#D4E5F9" p-id="3202"></path><path d="M512 172.8C326.4 172.8 172.8 326.4 172.8 512s153.6 339.2 339.2 339.2 339.2-153.6 339.2-339.2S697.6 172.8 512 172.8z m0 620.8c-160 0-281.6-128-281.6-281.6s128-281.6 281.6-281.6 281.6 128 281.6 281.6-121.6 281.6-281.6 281.6z" fill="#0E94D9" p-id="3203"></path><path d="M512 512m-281.6 0a281.6 281.6 0 1 0 563.2 0 281.6 281.6 0 1 0-563.2 0Z" fill="#0D9CE6" p-id="3204"></path></svg>