<svg t="1750587961506" class="icon" viewBox="0 0 1024 1024" version="1.1" xmlns="http://www.w3.org/2000/svg" p-id="20802" width="20" height="20"><path d="M615.658667 128A212.693333 212.693333 0 0 1 768 64c117.824 0 213.333333 95.509333 213.333333 213.333333s-95.509333 213.333333-213.333333 213.333334a212.693333 212.693333 0 0 1-152.341333-64H192.149333a149.333333 149.333333 0 1 1 0-298.666667h423.509334z m-51.221334 85.333333H192.149333a64 64 0 1 0 0 128h372.266667A213.248 213.248 0 0 1 554.666667 277.333333c0-22.293333 3.413333-43.797333 9.770666-64zM768 405.333333a128 128 0 1 0 0-256 128 128 0 0 0 0 256z m-359.658667 192h423.509334a149.333333 149.333333 0 1 1 0 298.666667H408.341333A212.693333 212.693333 0 0 1 256 960C138.176 960 42.666667 864.490667 42.666667 746.666667s95.509333-213.333333 213.333333-213.333334a212.693333 212.693333 0 0 1 152.341333 64z m51.221334 85.333334c6.357333 20.202667 9.770667 41.706667 9.770666 64s-3.413333 43.797333-9.770666 64h372.288a64 64 0 1 0 0-128h-372.266667zM256 874.666667a128 128 0 1 0 0-256 128 128 0 0 0 0 256z" fill="#1296db" p-id="20803"></path></svg>