<svg t="1750345306044" class="icon" viewBox="0 0 1024 1024" version="1.1" xmlns="http://www.w3.org/2000/svg" p-id="1526" width="32" height="32"><path d="M512 0C229.2 0 0 229.2 0 512s229.2 512 512 512 512-229.2 512-512S794.8 0 512 0z m39.4 484.6l144 208c15.094 21.78 9.656 51.68-12.156 66.78A47.244 47.244 0 0 1 656 768c-15.218 0-30.18-7.218-39.5-20.68L477.8 546.8 416 607.8V720c0 26.6-21.4 48-48 48s-48-21.4-48-48V304c0-26.4 21.6-48 48-48s48 21.6 48 48v169l206.4-203.2c18.906-18.594 49.34-18.344 67.88 0.5 18.624 18.906 18.376 49.28-0.5 67.88l-143.56 141.38c1.58 1.84 3.78 3.04 5.18 5.04z" p-id="1527" fill="#6179e4"></path></svg>