<svg xmlns="http://www.w3.org/2000/svg" viewBox="0 0 24 24" fill="none">
  <path
    fill="#111827"
    d="M12 1.5C6.201 1.5 1.5 6.26 1.5 12.135c0 4.7 3.009 8.687 7.184 10.094.525.1.716-.232.716-.516 0-.253-.01-1.092-.015-1.98-2.924.65-3.541-1.256-3.541-1.256-.478-1.239-1.167-1.568-1.167-1.568-.954-.665.072-.651.072-.651 1.055.076 1.61 1.104 1.61 1.104.937 1.637 2.46 1.164 3.06.89.095-.694.366-1.165.666-1.433-2.335-.271-4.79-1.19-4.79-5.297 0-1.17.41-2.126 1.082-2.876-.109-.271-.469-1.363.102-2.842 0 0 .882-.289 2.89 1.098A9.874 9.874 0 0 1 12 6.844a9.86 9.86 0 0 1 2.632.363c2.006-1.387 2.887-1.098 2.887-1.098.572 1.479.212 2.57.104 2.842.674.75 1.08 1.706 1.08 2.876 0 4.118-2.46 5.022-4.803 5.288.376.333.712.988.712 1.991 0 1.438-.013 2.596-.013 2.949 0 .286.189.62.722.515 4.172-1.41 7.178-5.395 7.178-10.093C22.5 6.26 17.799 1.5 12 1.5Z"
  />
</svg>
