<?xml version="1.0" standalone="no"?><!DOCTYPE svg PUBLIC "-//W3C//DTD SVG 1.1//EN" "http://www.w3.org/Graphics/SVG/1.1/DTD/svg11.dtd"><svg t="1773497583862" class="icon" viewBox="0 0 1024 1024" version="1.1" xmlns="http://www.w3.org/2000/svg" p-id="5861" width="16" height="16" xmlns:xlink="http://www.w3.org/1999/xlink"><path d="M896 46.08a81.92 81.92 0 0 1 81.92 81.7664v768.3072a81.92 81.92 0 0 1-81.92 81.7664h-768a81.92 81.92 0 0 1-81.92-81.7664V127.8464A81.92 81.92 0 0 1 128 46.08z m0 10.24h-768a71.68 71.68 0 0 0-71.68 71.5264v768.3072A71.68 71.68 0 0 0 128 967.68h768a71.68 71.68 0 0 0 71.68-71.5264V127.8464A71.68 71.68 0 0 0 896 56.32z" fill="#333333" p-id="5862"></path><path d="M601.1904 751.7696l-78.336-184.5248c-4.4032 8.6528-18.432 35.6864-42.0352 81.1008-23.6544 45.4144-41.216 79.872-52.736 103.424a51.2 51.2 0 0 1-7.2704 1.3312c-4.7104 0.7168-7.0656 0.5632-7.0656-0.4096-14.4896-34.1504-37.12-86.1184-67.84-155.8528s-53.6576-122.5216-68.864-158.208a125.3376 125.3376 0 0 0-17.664-28.5696 145.152 145.152 0 0 0-27.4944-26.7264c-10.24-7.5776-19.3024-11.4176-27.0848-11.4176 0-0.8704 0.4608-2.9696 1.3312-6.3488A32.8192 32.8192 0 0 0 207.4624 358.4h154.7776v13.312a76.3904 76.3904 0 0 0-21.0944 4.1984 41.3184 41.3184 0 0 0-17.664 11.4176c-4.608 5.12-5.4784 10.8032-2.6624 16.9984 4.608 10.4448 23.7568 54.6304 57.4976 132.5056a16314.368 16314.368 0 0 0 62.5152 143.36c5.4784-10.752 17.92-34.3552 37.1712-70.7584l34.816-65.6896c-3.3792-6.912-14.5408-31.744-33.4848-74.6496-18.944-42.8032-30.976-68.9152-36.096-78.336-6.7584-12.1856-24.5248-18.432-53.4016-18.8416v-13.2608l136.192 0.256v12.4928c-10.5984 0.3584-18.8416 2.56-24.7808 6.656-5.9392 4.096-7.0144 10.1888-3.328 18.3296 5.8368 12.3904 13.568 29.184 23.0912 50.2784 9.5744 21.1456 17.2032 37.7856 22.8352 49.8176 19.456-37.888 34.816-70.0416 45.9264-96.4096 4.2496-9.728 3.3792-16.7424-2.6112-21.0944-6.0416-4.352-17.4592-6.656-34.304-7.0656 0.2048-1.2288 0.3072-3.4304 0.3072-6.656V358.912c11.3152 0 26.4192 0.4608 45.2608 1.3312 18.8416 0.9216 34.816 0.8192 47.7696-0.256 13.056-1.024 21.1968-0.6144 24.576 1.3312v13.0048c-10.9568 0.3584-21.504 3.2768-31.5904 8.7552a65.4336 65.4336 0 0 0-23.9104 21.504l-56.5248 117.3504c2.304 5.888 13.568 31.5392 33.792 77.0048 20.3264 45.5168 31.0784 69.7344 32.3072 72.7552l117.0944-270.0288a34.304 34.304 0 0 0-13.1584-16.5888 52.736 52.736 0 0 0-17.2544-8.3456 76.8512 76.8512 0 0 0-14.7456-2.1504v-13.2608l122.1632 1.024 0.256 0.5632-0.256 11.6736c-24.576 0.7168-42.3936 13.568-53.4016 38.5024a218161.9712 218161.9712 0 0 1-148.3776 342.784h-13.056z" fill="#333333" p-id="5863"></path></svg>